<svg id="Camada_1" data-name="Camada 1" xmlns="http://www.w3.org/2000/svg" xmlns:xlink="http://www.w3.org/1999/xlink" viewBox="0 0 164.64 43.83"><defs><style>.cls-1{fill:#fff;}.cls-2{fill:url(#Gradiente_sem_nome);}.cls-3{fill:url(#Gradiente_sem_nome_2);}.cls-4{fill:#fafafa;}</style><linearGradient id="Gradiente_sem_nome" x1="153.17" y1="106.61" x2="141.57" y2="-6.55" gradientTransform="matrix(1, 0, 0, -1, 0, 43.89)" gradientUnits="userSpaceOnUse"><stop offset="0" stop-color="#5498ff"/><stop offset="0.52" stop-color="#428eff"/><stop offset="1" stop-color="#297fff"/></linearGradient><linearGradient id="Gradiente_sem_nome_2" x1="47.55" y1="111.6" x2="14.7" y2="-3.24" xlink:href="#Gradiente_sem_nome"/></defs><title>Logo</title><path class="cls-1" d="M56.4,30V14.79h4.83V18a4.26,4.26,0,0,1,4.2-3.44,5.54,5.54,0,0,1,1.26.12v4.48a14.15,14.15,0,0,0-1.45-.09q-4,0-4,5.08V30Zm24.28-1.8a8.23,8.23,0,0,1-6.12,2.27,8.34,8.34,0,0,1-6.15-2.27,7.79,7.79,0,0,1-2.31-5.81,7.68,7.68,0,0,1,2.31-5.77,8.34,8.34,0,0,1,6.15-2.27,8.23,8.23,0,0,1,6.12,2.27A7.68,7.68,0,0,1,83,22.39,7.79,7.79,0,0,1,80.68,28.2Zm-6.12-1.83a3.38,3.38,0,0,0,2.65-1.1,4.21,4.21,0,0,0,1-2.88,4.2,4.2,0,0,0-1-2.87,3.78,3.78,0,0,0-5.33,0,4.28,4.28,0,0,0-.95,2.87,4.29,4.29,0,0,0,.95,2.88A3.4,3.4,0,0,0,74.56,26.37Zm16.77,4.1a8,8,0,0,1-5.93-2.21,8,8,0,0,1-2.21-5.87,7.88,7.88,0,0,1,2.21-5.83,8,8,0,0,1,5.93-2.21A8.57,8.57,0,0,1,96.83,16a6.28,6.28,0,0,1,2.39,4.54H94.4a2.75,2.75,0,0,0-3-2.14,3,3,0,0,0-2.47,1A4.44,4.44,0,0,0,88,22.39a4.47,4.47,0,0,0,.88,2.94,3.07,3.07,0,0,0,2.47,1c1.66,0,2.67-.67,3-2h4.82a6.23,6.23,0,0,1-2.39,4.48A8.67,8.67,0,0,1,91.33,30.47ZM115.65,30h-5.9l-4.82-6.6V30H100.1V7.91h4.83V21.13l4.95-6.34h5.68L109.5,22Zm14-8.39a18.44,18.44,0,0,1-.13,2.11H118.32a3,3,0,0,0,1,2.3,3.75,3.75,0,0,0,2.56.82c1.47,0,2.42-.47,2.84-1.42h4.73A5.26,5.26,0,0,1,127,29.08a9,9,0,0,1-5.11,1.39,8.51,8.51,0,0,1-6.13-2.14,7.85,7.85,0,0,1-2.24-5.94,7.76,7.76,0,0,1,2.24-5.87,9.23,9.23,0,0,1,11.71-.15A6.77,6.77,0,0,1,129.68,21.61Zm-11.36-.89h6.6a3.26,3.26,0,0,0-.86-2.33,3.17,3.17,0,0,0-2.36-.82,3.39,3.39,0,0,0-2.46.88A3.1,3.1,0,0,0,118.32,20.72Zm20.15,5.52a13,13,0,0,0,1.68-.09V30a18.08,18.08,0,0,1-3.22.25,10.58,10.58,0,0,1-1.46-.09,7,7,0,0,1-1.42-.41,3.73,3.73,0,0,1-1.29-.92,4.8,4.8,0,0,1-.88-1.64,8.24,8.24,0,0,1-.35-2.52V18.61h-2.4V14.79h2.4V10.28h4.83v4.51h3.44v3.82h-3.44v5.05a3,3,0,0,0,.53,2.08A2.22,2.22,0,0,0,138.47,26.24Zm21.37-11.45h4.8V36.31h-4.83V28.67h0v-.82a4.8,4.8,0,0,1-2,1.87,6,6,0,0,1-2.87.69,6.57,6.57,0,0,1-5.24-2.24,8.56,8.56,0,0,1-1.92-5.78,8.39,8.39,0,0,1,2-5.74,6.62,6.62,0,0,1,5.23-2.27,5.93,5.93,0,0,1,2.88.69,4.61,4.61,0,0,1,1.89,1.9ZM156.4,26.4a3.3,3.3,0,0,0,2.68-1.13,4.36,4.36,0,0,0,.95-2.88,4.31,4.31,0,0,0-.95-2.84,3.3,3.3,0,0,0-2.68-1.13,3.44,3.44,0,0,0-2.65,1.1,4.2,4.2,0,0,0-1,2.87,4.32,4.32,0,0,0,1,2.91A3.44,3.44,0,0,0,156.4,26.4Z" transform="translate(0 0)"/><path class="cls-2" d="M146.16,29.4a3,3,0,0,1-2.21.92,3.09,3.09,0,0,1-3.13-3.1,2.93,2.93,0,0,1,.89-2.17,3.06,3.06,0,0,1,2.24-.92,3,3,0,0,1,2.21.92,2.88,2.88,0,0,1,.91,2.17A3,3,0,0,1,146.16,29.4Z" transform="translate(0 0)"/><rect class="cls-3" width="43.83" height="43.83" rx="7.89"/><path class="cls-4" d="M33.26,32.41H29.35a.31.31,0,0,1-.31-.29s0-.1,0-.15a4.26,4.26,0,0,0-4.46-3.55c-1.49.19-2.72,1.31-4.22,1.48a9,9,0,0,1-2.88-.14A8.33,8.33,0,0,1,15,28.84a9,9,0,0,1-3.74-3.7,8.07,8.07,0,0,1-1-3,10,10,0,0,1,0-2.5A9,9,0,0,1,11.4,16a8.8,8.8,0,0,1,3.66-3.46,8.39,8.39,0,0,1,2.27-.84,9,9,0,0,1,5.25.3,8.8,8.8,0,0,1,3.26,2c2.18,2.08,2.35,5.34,2.41,8.35a.45.45,0,0,1-.53.44,10,10,0,0,0-3.65-.05.51.51,0,0,1-.55-.66c0-.15.07-.3.1-.44.39-2.34-1.21-5-3.57-5.23a4.31,4.31,0,0,0-3.64,1.51,3.82,3.82,0,0,0-1,2.34A4.45,4.45,0,0,0,19.5,25a3.48,3.48,0,0,0,1.35-.19c1.43-.49,2.82-1.21,4.32-1.1,4.51.34,7.68,2.38,8.52,8.17A.44.44,0,0,1,33.26,32.41Z" transform="translate(0 0)"/></svg>