<svg width="149" height="135" viewBox="0 0 149 135" fill="none" xmlns="http://www.w3.org/2000/svg">
<circle opacity="0.1" cx="81.5" cy="67.5" r="67.5" fill="url(#paint0_linear)"/>
<path fill-rule="evenodd" clip-rule="evenodd" d="M76.423 66.5012C64.6434 66.5012 55.0942 74.8799 55.0942 85.2155V85.2633C55.0942 95.5989 64.6434 103.978 76.423 103.978H107.877C109.052 103.978 110.204 103.894 111.328 103.734L117.422 108.898C117.587 109.039 117.809 109.117 118.039 109.117C118.53 109.117 118.928 108.768 118.928 108.338L118.928 101.273C125.089 97.9914 129.205 92.0491 129.205 85.2633V85.2155C129.205 74.8799 119.656 66.5012 107.877 66.5012H76.423Z" fill="#1D4885"/>
<path d="M81.5965 21.6648H36.6854C19.8574 21.6648 6.21562 33.6343 6.21562 48.3995C6.21562 63.1647 19.8574 75.1343 36.6854 75.1343H81.5965C98.4245 75.1343 112.066 63.1647 112.066 48.3995C112.066 33.6343 98.4245 21.6648 81.5965 21.6648Z" fill="url(#paint1_linear)"/>
<path fill-rule="evenodd" clip-rule="evenodd" d="M20.8951 67.3577V81.3535C20.8951 81.9688 21.4635 82.4675 22.1646 82.4675C22.4935 82.4675 22.8095 82.3555 23.0462 82.1552L34.7678 72.2316L20.8951 67.3577Z" fill="url(#paint2_linear)"/>
<path d="M38.7484 51.7415C41.4654 51.7415 43.668 49.8089 43.668 47.4249C43.668 45.041 41.4654 43.1084 38.7484 43.1084C36.0314 43.1084 33.8288 45.041 33.8288 47.4249C33.8288 49.8089 36.0314 51.7415 38.7484 51.7415Z" fill="white"/>
<path d="M58.9029 51.7415C61.6199 51.7415 63.8225 49.8089 63.8225 47.4249C63.8225 45.041 61.6199 43.1084 58.9029 43.1084C56.1859 43.1084 53.9833 45.041 53.9833 47.4249C53.9833 49.8089 56.1859 51.7415 58.9029 51.7415Z" fill="white"/>
<path d="M79.5334 51.7415C82.2505 51.7415 84.453 49.8089 84.453 47.4249C84.453 45.041 82.2505 43.1084 79.5334 43.1084C76.8164 43.1084 74.6138 45.041 74.6138 47.4249C74.6138 49.8089 76.8164 51.7415 79.5334 51.7415Z" fill="white"/>
<defs>
<linearGradient id="paint0_linear" x1="175.583" y1="-204.224" x2="74.4065" y2="149.495" gradientUnits="userSpaceOnUse">
<stop stop-color="#5498FF"/>
<stop offset="0.515625" stop-color="#428EFF"/>
<stop offset="1" stop-color="#297FFF"/>
</linearGradient>
<linearGradient id="paint1_linear" x1="132.909" y1="-59.2221" x2="111.458" y2="89.2381" gradientUnits="userSpaceOnUse">
<stop stop-color="#5498FF"/>
<stop offset="0.515625" stop-color="#428EFF"/>
<stop offset="1" stop-color="#297FFF"/>
</linearGradient>
<linearGradient id="paint2_linear" x1="37.4995" y1="44.5" x2="25.337" y2="83.5398" gradientUnits="userSpaceOnUse">
<stop stop-color="#5498FF"/>
<stop offset="0.515625" stop-color="#428EFF"/>
<stop offset="1" stop-color="#297FFF"/>
</linearGradient>
</defs>
</svg>
